<?xml version="1.0" encoding="UTF-8" standalone="no"?>
<!-- Created with Inkscape (http://www.inkscape.org/) -->

<svg
   width="288.99557mm"
   height="288.99557mm"
   viewBox="0 0 288.99557 288.99557"
   version="1.1"
   id="svg1"
   inkscape:version="1.3 (0e150ed6c4, 2023-07-21)"
   sodipodi:docname="favicon.svg"
   xml:space="preserve"
   xmlns:inkscape="http://www.inkscape.org/namespaces/inkscape"
   xmlns:sodipodi="http://sodipodi.sourceforge.net/DTD/sodipodi-0.dtd"
   xmlns="http://www.w3.org/2000/svg"
   xmlns:svg="http://www.w3.org/2000/svg"><sodipodi:namedview
     id="namedview1"
     pagecolor="#ffffff"
     bordercolor="#000000"
     borderopacity="0.25"
     inkscape:showpageshadow="2"
     inkscape:pageopacity="0.0"
     inkscape:pagecheckerboard="0"
     inkscape:deskcolor="#d1d1d1"
     inkscape:document-units="mm"
     showguides="true"
     inkscape:zoom="0.5"
     inkscape:cx="575"
     inkscape:cy="429"
     inkscape:current-layer="layer1" /><defs
     id="defs1" /><g
     inkscape:label="Ebene 1"
     inkscape:groupmode="layer"
     id="layer1"
     transform="translate(39.497788,20.262788)"><path
       id="path4"
       style="fill:#e3311a;fill-opacity:1;fill-rule:evenodd;stroke:none;stroke-width:0.1"
       d="m 90.293713,190.00804 c -4.969794,0.006 -9.940305,0.0362 -14.911234,0.0894 2.5e-5,4.92692 -2.5e-5,9.85358 0,14.78049 v 13.78521 c 0,10.64922 5.682014,20.48933 14.904516,25.81393 9.222493,5.32462 20.584465,5.32461 29.806965,0 9.22251,-5.32461 14.904,-15.16471 14.904,-25.81393 l -0.16433,-13.78521 c 0.0548,-4.76269 0.1095,-9.5248 0.16433,-14.2875 -14.89131,-0.40641 -29.79488,-0.60081 -44.704247,-0.58239 z m -9.812837,14.76757 h 49.418684 c 1.35105,0 2.43913,1.08809 2.43913,2.43913 v 11.47217 c 0,9.69914 -5.17466,18.66113 -13.57436,23.51071 -8.39969,4.84957 -18.74851,4.84957 -27.148217,0 -8.399698,-4.84958 -13.573848,-13.81157 -13.573848,-23.51071 v -11.47217 c 0,-1.35104 1.087575,-2.43913 2.438611,-2.43913 z" /><path
       style="fill:#000000;fill-opacity:1;fill-rule:evenodd;stroke:none;stroke-width:0.1"
       d="m 0,32.300529 81.256377,141.343191 -6.213701,2.50168 -9.154751,-3.10685 6.882644,14.70205 c 3.659393,-2.79605 11.823378,-5.03765 14.509515,-5.52115 L 28.753032,53.035821 l 23.89507,9.41174 10.4244,8.212233 -3.96455,-15.533609 z"
       id="path2" /><path
       style="fill:#e3311a;fill-opacity:1;fill-rule:evenodd;stroke:none;stroke-width:0.1"
       d="M 104.75926,0 62.495388,49.126113 95.584107,180.96447 c 9.853533,-0.86741 19.050623,-0.0248 19.416543,0.009 l 3.71648,-14.49671 -8.35891,5.36237 L 96.145918,170.97788 80.211194,41.775756 105.18971,13.78222 l 32.60535,40.061914 6.26727,13.769111 4.19475,-16.362617 z"
       id="path1" /><path
       style="fill:#000000;fill-opacity:1;fill-rule:evenodd;stroke:none;stroke-width:0.1"
       d="m 209.99999,32.300529 -26.20416,10.119583 7.09818,2.585215 -51.82867,132.664803 -13.84882,-4.53975 37.68332,-112.189692 10.4735,-14.496083 -22.48131,8.68158 -30.27074,126.648155 c 0.18743,0.0305 11.46635,1.876 16.83196,5.96626 z"
       id="path3" /><rect
       style="fill:none;fill-rule:evenodd;stroke-width:10.7;stroke-linecap:round;stroke-linejoin:round"
       id="rect1"
       width="288.99557"
       height="288.99557"
       x="-39.497787"
       y="-20.262787" /></g></svg>
