<?xml version="1.0" encoding="UTF-8" standalone="no"?>
<!-- Created with Inkscape (http://www.inkscape.org/) -->

<svg
   width="499.99741"
   height="499.99753"
   viewBox="0 0 132.29098 132.29102"
   version="1.1"
   id="svg1"
   inkscape:version="1.3 (0e150ed6c4, 2023-07-21)"
   sodipodi:docname="icons.svg"
   xml:space="preserve"
   xmlns:inkscape="http://www.inkscape.org/namespaces/inkscape"
   xmlns:sodipodi="http://sodipodi.sourceforge.net/DTD/sodipodi-0.dtd"
   xmlns="http://www.w3.org/2000/svg"
   xmlns:svg="http://www.w3.org/2000/svg"><sodipodi:namedview
     id="namedview1"
     pagecolor="#ffffff"
     bordercolor="#000000"
     borderopacity="0.25"
     inkscape:showpageshadow="2"
     inkscape:pageopacity="0.0"
     inkscape:pagecheckerboard="0"
     inkscape:deskcolor="#d1d1d1"
     inkscape:document-units="px"
     inkscape:zoom="0.17572075"
     inkscape:cx="1875.1343"
     inkscape:cy="-406.8956"
     inkscape:current-layer="svg1"><inkscape:page
       x="-1.5799913e-05"
       y="0"
       width="132.29099"
       height="132.29102"
       id="page6"
       margin="0"
       bleed="0" /></sodipodi:namedview><defs
     id="defs1" /><g
     inkscape:label="Ebene 1"
     inkscape:groupmode="layer"
     id="layer1"
     transform="translate(-284.58397)"><path
       style="color:#000000;fill:#000000;-inkscape-stroke:none"
       d="m 350.72852,26.761719 c -13.23283,0 -24.02539,10.793289 -24.0254,24.02539 0,13.232056 10.79257,24.023438 24.0254,24.023438 13.23283,0 24.02734,-10.791382 24.02734,-24.023438 0,-13.232101 -10.79452,-24.02539 -24.02734,-24.02539 z m 0,6.615234 c 9.66148,0 17.4121,7.750101 17.4121,17.410156 0,9.659994 -7.75062,17.410157 -17.4121,17.410157 -9.66149,0 -17.41016,-7.750163 -17.41016,-17.410157 0,-9.660055 7.74867,-17.410156 17.41016,-17.410156 z m 0,45.177734 c -7.46814,0 -18.01057,1.774908 -27.13477,5.429688 -4.5621,1.82739 -8.76677,4.117032 -12.01563,7.115234 -3.24885,2.998203 -5.59374,6.929718 -5.59375,11.478521 v 10.35937 h 6.61329 v -10.35937 c 0,-2.33957 1.10694,-4.439411 3.46679,-6.617193 2.35985,-2.177781 5.92157,-4.206196 9.99024,-5.835937 8.13733,-3.259481 18.31215,-4.955078 24.67383,-4.955078 6.36178,0 16.53847,1.695599 24.67578,4.955078 4.06865,1.62974 7.6304,3.658158 9.99023,5.835937 2.35984,2.17778 3.46484,4.277613 3.46484,6.617193 v 10.35937 h 6.61524 v -10.35937 c 0,-4.548796 -2.34491,-8.480316 -5.59375,-11.478521 -3.24885,-2.998204 -7.45549,-5.287843 -12.01758,-7.115234 -9.12418,-3.654782 -19.66654,-5.429688 -27.13476,-5.429688 z"
       id="path76" /><path
       style="color:#000000;fill:#000000;fill-rule:evenodd;stroke-linecap:round;stroke-linejoin:round;-inkscape-stroke:none"
       d="m 350.72852,0 c -36.45294,0 -66.14454,29.693551 -66.14454,66.146484 0,36.452936 29.6916,66.144536 66.14454,66.144536 36.45293,0 66.14648,-29.6916 66.14648,-66.144536 C 416.875,29.693551 387.18145,0 350.72852,0 Z m 0,13.228516 c 29.3034,0 52.91796,23.614564 52.91796,52.917968 10e-6,29.303405 -23.61456,52.916016 -52.91796,52.916016 -29.30341,0 -52.91602,-23.612611 -52.91602,-52.916016 0,-29.303404 23.61261,-52.917968 52.91602,-52.917968 z"
       id="circle76" /></g></svg>
