<?xml version="1.0" encoding="UTF-8" standalone="no"?>
<!-- Created with Inkscape (http://www.inkscape.org/) -->

<svg
   width="499.99344"
   height="499.99753"
   viewBox="0 0 132.28993 132.29102"
   version="1.1"
   id="svg1"
   inkscape:version="1.3 (0e150ed6c4, 2023-07-21)"
   sodipodi:docname="icons.svg"
   xml:space="preserve"
   xmlns:inkscape="http://www.inkscape.org/namespaces/inkscape"
   xmlns:sodipodi="http://sodipodi.sourceforge.net/DTD/sodipodi-0.dtd"
   xmlns="http://www.w3.org/2000/svg"
   xmlns:svg="http://www.w3.org/2000/svg"><sodipodi:namedview
     id="namedview1"
     pagecolor="#ffffff"
     bordercolor="#000000"
     borderopacity="0.25"
     inkscape:showpageshadow="2"
     inkscape:pageopacity="0.0"
     inkscape:pagecheckerboard="0"
     inkscape:deskcolor="#d1d1d1"
     inkscape:document-units="px"
     inkscape:zoom="0.3514415"
     inkscape:cx="29.87695"
     inkscape:cy="482.29933"
     inkscape:current-layer="layer1"><inkscape:page
       x="-8.5936445e-06"
       y="0"
       width="132.28993"
       height="132.29102"
       id="page6"
       margin="0"
       bleed="0" /></sodipodi:namedview><defs
     id="defs1" /><g
     inkscape:label="Ebene 1"
     inkscape:groupmode="layer"
     id="layer1"
     transform="translate(-569.1675)"><path
       style="color:#000000;fill:#000000;fill-rule:evenodd;stroke-linecap:square;stroke-linejoin:round;-inkscape-stroke:none"
       d="m 635.3125,0 a 6.6152616,6.6152616 0 0 0 -5.91602,3.65625 l -59.53125,119.0625 a 6.6152616,6.6152616 0 0 0 5.91602,9.57227 h 119.0625 a 6.6152616,6.6152616 0 0 0 5.91602,-9.57227 L 641.22852,3.65625 A 6.6152616,6.6152616 0 0 0 635.3125,0 Z m 0,21.404297 48.82812,97.658203 h -97.65625 z"
       id="path68"
       inkscape:export-filename="..\src\web\scu-webservice\public\icon_pyramid.svg"
       inkscape:export-xdpi="90"
       inkscape:export-ydpi="90" /><path
       style="color:#000000;fill:#000000;fill-rule:evenodd;stroke-linecap:round;stroke-linejoin:round;-inkscape-stroke:none"
       d="m 615.27344,41.150391 a 6.6146002,6.6146002 0 0 0 -6.61524,6.615234 6.6146002,6.6146002 0 0 0 6.61524,6.613281 h 40.07812 a 6.6146002,6.6146002 0 0 0 6.61524,-6.613281 6.6146002,6.6146002 0 0 0 -6.61524,-6.615234 z"
       id="path69" /><path
       style="color:#000000;fill:#000000;fill-rule:evenodd;stroke-linecap:round;stroke-linejoin:round;-inkscape-stroke:none"
       d="m 596.37695,79.167969 a 6.6146002,6.6146002 0 0 0 -6.61523,6.615234 6.6146002,6.6146002 0 0 0 6.61523,6.615234 h 77.8711 a 6.6146002,6.6146002 0 0 0 6.61523,-6.615234 6.6146002,6.6146002 0 0 0 -6.61523,-6.615234 z"
       id="path70" /><path
       style="color:#000000;fill:#000000;fill-rule:evenodd;stroke-linecap:round;stroke-linejoin:round;-inkscape-stroke:none"
       d="m 601.75586,102.83398 a 6.6146002,6.6146002 0 0 0 -6.61524,6.61329 6.6146002,6.6146002 0 0 0 6.61524,6.61523 h 18.45117 a 6.6146002,6.6146002 0 0 0 6.61524,-6.61523 6.6146002,6.6146002 0 0 0 -6.61524,-6.61329 z"
       id="path71" /></g></svg>
