<?xml version="1.0" encoding="UTF-8" standalone="no"?>
<!-- Created with Inkscape (http://www.inkscape.org/) -->

<svg
   width="500.00012"
   height="500.00018"
   viewBox="0 0 132.2917 132.29172"
   version="1.1"
   id="svg1"
   inkscape:version="1.3 (0e150ed6c4, 2023-07-21)"
   sodipodi:docname="icon_pyramid.svg"
   xml:space="preserve"
   xmlns:inkscape="http://www.inkscape.org/namespaces/inkscape"
   xmlns:sodipodi="http://sodipodi.sourceforge.net/DTD/sodipodi-0.dtd"
   xmlns="http://www.w3.org/2000/svg"
   xmlns:svg="http://www.w3.org/2000/svg"><sodipodi:namedview
     id="namedview1"
     pagecolor="#ffffff"
     bordercolor="#000000"
     borderopacity="0.25"
     inkscape:showpageshadow="2"
     inkscape:pageopacity="0.0"
     inkscape:pagecheckerboard="0"
     inkscape:deskcolor="#d1d1d1"
     inkscape:document-units="px"
     inkscape:zoom="1.3519996"
     inkscape:cx="250.00007"
     inkscape:cy="250.00007"
     inkscape:current-layer="layer1"><inkscape:page
       x="-7.41438e-06"
       y="-4.0262401e-16"
       width="132.2917"
       height="132.29172"
       id="page6"
       margin="0"
       bleed="0" /></sodipodi:namedview><defs
     id="defs1" /><g
     inkscape:label="Ebene 1"
     inkscape:groupmode="layer"
     id="layer1"
     transform="translate(-426.87502)"><path
       id="path68"
       style="color:#000000;fill:#000000;fill-rule:evenodd;stroke-width:0.999992;stroke-linecap:square;stroke-linejoin:round;-inkscape-stroke:none"
       d="M 493.02109,0 A 6.6153205,6.6152873 0 0 0 487.1046,3.6561223 L 427.57282,122.71909 a 6.6153205,6.6152873 0 0 0 5.91649,9.57258 h 119.06356 a 6.6153205,6.6152873 0 0 0 5.91598,-9.57258 L 498.93707,3.6561223 A 6.6153205,6.6152873 0 0 0 493.02109,0 Z m 0,21.404463 9.87287,19.746158 h -19.74573 z m -16.48751,32.974859 h 32.97451 l 12.39418,24.788766 H 464.1394 Z m -19.00934,38.019534 h 70.99371 l 13.33161,26.664104 h -97.65745 z m 1.93994,10.435584 a 6.6146591,6.614626 0 0 0 -6.61567,6.61306 6.6146591,6.614626 0 0 0 6.61567,6.61564 h 18.45124 a 6.6146591,6.614626 0 0 0 6.61516,-6.61564 6.6146591,6.614626 0 0 0 -6.61516,-6.61306 z"
       inkscape:export-filename="..\src\web\scu-webservice\public\icon_pyramid.svg"
       inkscape:export-xdpi="96"
       inkscape:export-ydpi="96" /></g></svg>
