<?xml version="1.0" encoding="UTF-8" standalone="no"?>
<!-- Created with Inkscape (http://www.inkscape.org/) -->

<svg
   width="500.00012"
   height="500.00018"
   viewBox="0 0 132.2917 132.29172"
   version="1.1"
   id="svg1"
   inkscape:version="1.3 (0e150ed6c4, 2023-07-21)"
   sodipodi:docname="icons.svg"
   xml:space="preserve"
   xmlns:inkscape="http://www.inkscape.org/namespaces/inkscape"
   xmlns:sodipodi="http://sodipodi.sourceforge.net/DTD/sodipodi-0.dtd"
   xmlns="http://www.w3.org/2000/svg"
   xmlns:svg="http://www.w3.org/2000/svg"><sodipodi:namedview
     id="namedview1"
     pagecolor="#ffffff"
     bordercolor="#000000"
     borderopacity="0.25"
     inkscape:showpageshadow="2"
     inkscape:pageopacity="0.0"
     inkscape:pagecheckerboard="0"
     inkscape:deskcolor="#d1d1d1"
     inkscape:document-units="px"
     inkscape:zoom="0.702883"
     inkscape:cx="1725.0382"
     inkscape:cy="372.03916"
     inkscape:current-layer="g12"><inkscape:page
       x="-7.41438e-06"
       y="-4.0262401e-16"
       width="132.2917"
       height="132.29172"
       id="page6"
       margin="0"
       bleed="0" /></sodipodi:namedview><defs
     id="defs1" /><g
     inkscape:label="Ebene 1"
     inkscape:groupmode="layer"
     id="layer1"
     transform="translate(-426.87502)"><g
       id="g2-3-2"
       transform="matrix(0.20354154,0,0,0.20354155,483.97509,-11.821393)"
       style="stroke:none;stroke-width:1.21866"
       inkscape:export-filename="..\src\web\scu-webservice\public\icon_game.svg"
       inkscape:export-xdpi="96"
       inkscape:export-ydpi="96">&#10;	&#10;	&#10;		&#10;	&#10;	<path
   id="path45"
   style="fill:#000000;stroke:none;stroke-width:1.21866"
   class="st0"
   d="m -156.56097,58.092892 c -14.08825,-0.198646 -27.94801,1.662067 -41.09908,5.704829 -17.52166,5.380101 -33.77863,14.687381 -47.33706,27.965619 -13.55227,13.26875 -23.2029,29.32547 -28.95571,46.73295 -8.64077,26.13584 -8.6287,55.23579 -0.80228,83.61252 7.83325,28.3881 23.51661,56.14467 46.61857,79.7509 15.40374,15.72594 32.27452,27.72509 49.80737,35.99608 26.2913,12.41721 54.1058,16.42125 80.357484,12.29064 26.263596,-4.107 50.908264,-16.37638 70.818991,-35.88688 C -13.880958,301.2627 -3.7527827,286.09686 2.8896558,269.67703 12.866355,245.04004 14.977493,217.59635 8.6934974,190.49737 2.4235878,163.38201 -12.20028,136.64823 -35.302429,113.05937 -66.116018,81.607443 -104.57267,63.153066 -142.41443,58.973869 c -4.72927,-0.519586 -9.45045,-0.814779 -14.14654,-0.880977 z m 402.0083,-1.2e-5 c -4.69605,0.06618 -9.41981,0.361451 -14.14905,0.880991 -37.84176,4.179169 -76.29847,22.633566 -107.11201,54.085499 -23.10211,23.58886 -37.726059,50.32269 -43.995904,77.438 -6.284008,27.09894 -4.172911,54.54266 5.803815,79.17966 6.642384,16.41983 16.770969,31.58533 30.042339,44.58252 19.91069,19.51045 44.55542,31.77987 70.81899,35.88688 26.25167,4.13057 54.06617,0.12658 80.35748,-12.29066 17.53284,-8.27093 34.40365,-20.27014 49.80737,-35.99605 23.10193,-23.60624 38.78529,-51.36284 46.61857,-79.75092 7.82639,-28.37671 7.83848,-57.47667 -0.80228,-83.61252 C 357.08384,121.08884 347.43319,105.03207 333.88094,91.76334 320.32251,78.485126 304.06551,69.177777 286.54388,63.797726 273.39281,59.754928 259.53557,57.894254 245.44733,58.09288 Z m -402.35866,24.908827 c 11.66294,0.164603 23.71095,2.035194 35.73447,5.628673 24.033194,7.176427 47.872532,21.22169 68.069391,41.86339 13.48172,13.75983 23.364336,28.41865 29.994099,43.26992 9.934159,22.28637 12.583271,44.98639 8.81493,66.07148 -3.782315,21.09193 -13.961662,40.62478 -30.275901,56.62437 -10.892396,10.65749 -23.312663,18.53727 -36.635777,23.6064 -19.994062,7.59014 -42.079862,8.89844 -64.309362,3.26751 -22.20938,-5.64113 -44.59324,-18.26715 -64.8171,-38.90306 -26.94498,-27.50679 -41.99517,-61.25206 -44.79313,-93.00379 -1.4021,-15.86808 0.22798,-31.21478 4.82638,-45.10552 4.61247,-13.90711 12.13539,-26.36897 22.73296,-36.75774 10.61839,-10.385867 23.23956,-17.642218 37.23747,-21.95358 10.48148,-3.230466 21.75862,-4.772613 33.42157,-4.608053 z m 402.70648,5e-6 c 11.66293,-0.164578 22.9401,1.377593 33.42157,4.608039 13.99794,4.311414 26.62163,11.567667 37.24003,21.953599 10.59756,10.38875 18.11795,22.85066 22.7304,36.75771 4.5984,13.89078 6.23103,29.23746 4.82892,45.10553 -2.79794,31.75168 -17.84819,65.49702 -44.79312,93.00379 -20.22384,20.6359 -42.61027,33.26195 -64.81967,38.90307 -22.22944,5.63095 -44.31527,4.32259 -64.30935,-3.26752 -13.32304,-5.06913 -25.74092,-12.94886 -36.63319,-23.60639 -16.31429,-15.99961 -26.49618,-35.5325 -30.27847,-56.62438 -3.768342,-21.08503 -1.11919,-43.78513 8.81492,-66.07146 6.62981,-14.85128 16.51215,-29.51037 29.99411,-43.26992 20.19684,-20.64169 44.0362,-34.686988 68.06941,-41.8634 12.02346,-3.593502 24.07149,-5.464138 35.73444,-5.628668 z m -408.36306,14.085634 c -3.39436,0.172627 -6.74021,0.519815 -10.02089,1.033322 l 30.3341,30.979482 -31.67991,31.0148 -41.2895,-42.17313 c -0.73156,0.66555 -1.46815,1.31205 -2.17834,2.00824 -1.17631,1.14819 -2.30589,2.34266 -3.40207,3.55949 l 41.23595,42.12003 -31.67736,31.0148 -29.31369,-29.94086 c -0.5029,3.35855 -0.82409,6.77915 -0.98254,10.2621 l 24.66253,25.19314 -18.23409,17.85079 c 0.91831,2.70984 1.93946,5.39182 3.04156,8.05582 l 20.70949,-20.28047 34.46255,35.20388 -28.07473,27.48578 c 1.31739,1.44827 2.66397,2.88668 4.04949,4.2983 0.45546,0.47221 0.93799,0.92753 1.40655,1.39637 l 28.13568,-27.55177 34.45488,35.19633 -21.15378,20.71208 c 2.69504,1.13791 5.41727,2.14805 8.15481,3.04664 l 18.51591,-18.12753 22.15918,22.63401 c 3.21022,-0.34137 6.38905,-0.84586 9.535964,-1.52585 l -26.069034,-26.62256 31.677354,-31.01736 35.762179,36.51927 c 1.215535,-1.08005 2.417643,-2.2012 3.600115,-3.35894 0.704005,-0.68929 1.387547,-1.40027 2.071656,-2.10729 l -35.80048,-36.56477 31.677608,-31.01202 26.916995,27.4934 c 0.634495,-2.40935 1.188677,-4.84328 1.627413,-7.30941 0.121578,-0.65461 0.210584,-1.31343 0.312282,-1.97523 l -23.22279,-23.72335 19.912304,-19.49847 c -0.830044,-2.75581 -1.781782,-5.49957 -2.856224,-8.23102 l -22.570469,22.09829 -34.454589,-35.19659 29.529506,-28.91768 c -0.448355,-0.48173 -0.88068,-0.96554 -1.343078,-1.43699 -1.393234,-1.41868 -2.800228,-2.78368 -4.227191,-4.13583 l -29.476167,28.85932 -34.462514,-35.19886 22.09317,-21.63368 c -2.6403,-1.15469 -5.3043,-2.21571 -8.0001,-3.19898 l -19.60764,19.19899 z m 414.01966,-3e-6 -25.94209,26.495627 -19.61016,-19.20145 c -2.69581,0.98328 -5.35728,2.04681 -7.99741,3.20152 l 22.09318,21.63368 -34.46251,35.19886 -29.47618,-28.85932 c -1.42703,1.35208 -2.83394,2.71714 -4.22712,4.13591 -0.46267,0.47116 -0.89718,0.95531 -1.34562,1.43698 l 29.53203,28.9177 -34.45488,35.19632 -22.57048,-22.0983 c -1.07444,2.73146 -2.02613,5.47517 -2.8562,8.231 l 19.91228,19.49851 -23.22298,23.72318 c 0.1017,0.66179 0.19069,1.32059 0.31228,1.97523 0.43875,2.46614 0.99295,4.90006 1.62743,7.3094 l 26.917,-27.4934 31.67736,31.01227 -35.80047,36.56477 c 0.68398,0.70717 1.36771,1.41791 2.07167,2.1073 1.18247,1.15773 2.38461,2.27883 3.60009,3.35891 l 35.76241,-36.51905 31.67735,31.01733 -26.069,26.62257 c 3.14689,0.67999 6.32573,1.1845 9.53594,1.52585 l 22.16172,-22.63399 18.51338,18.12751 c 2.73754,-0.89858 5.46231,-1.90873 8.15735,-3.04664 l -21.15632,-20.71208 34.45488,-35.19632 28.1382,27.55179 c 0.4687,-0.46869 0.95106,-0.92418 1.4064,-1.3965 1.38551,-1.41167 2.72957,-2.85006 4.04694,-4.29831 l -28.07472,-27.48579 34.46249,-35.20394 20.71202,20.28048 c 1.10212,-2.66399 2.12073,-5.34598 3.03904,-8.05582 l -18.2341,-17.85078 24.66248,-25.19064 c -0.15845,-3.48296 -0.47962,-6.90608 -0.98254,-10.26465 l -29.31368,29.94088 -31.67737,-31.01481 41.23618,-42.11982 c -1.09622,-1.21684 -2.22577,-2.41127 -3.40205,-3.5595 -0.71026,-0.69612 -1.44669,-1.34275 -2.17833,-2.00826 l -41.2895,42.17314 -31.67736,-31.01482 30.33177,-30.979253 C 258.19187,97.607116 254.846,97.25992 251.45167,97.087293 Z m -388.19945,37.643797 34.46261,35.19622 -31.66974,31.0148 -34.47046,-35.19852 z m 362.37923,0 31.67737,31.0148 -34.47012,35.19886 -31.66974,-31.01479 z m -399.68272,36.52669 34.46251,35.19885 -31.67743,31.0173 -34.4701,-35.19887 z m 436.98621,0 31.68498,31.01735 -34.47012,35.19885 -31.67737,-31.01734 z m -359.703276,4.30591 34.462776,35.19353 -31.684996,31.01226 -34.454594,-35.19661 z m 282.420336,1e-5 31.67736,31.00972 -34.45487,35.19633 -31.68497,-31.01226 z m -319.72382,36.52668 34.454744,35.1939 -31.677334,31.01737 -34.46254,-35.19628 z m 357.02985,-1e-5 31.68244,31.01483 -34.46249,35.19631 -31.67736,-31.01735 z m -238.693541,107.24685 -9.576568,9.85334 60.038963,60.03915 -134.66372,134.66407 -22.814204,3.38177 -151.28599,151.28315 28.83387,29.46863 151.280564,-151.28095 3.55948,-22.99452 L 44.442861,398.94566 179.24625,533.75187 182.80573,556.74639 334.0863,708.02734 362.92014,678.5587 211.63702,527.27521 188.8203,523.89345 54.156614,389.23188 l 60.041516,-60.04169 -9.57915,-9.85333 -60.176077,60.17626 z m 56.928866,261.9959 c -8.092907,0.005 -15.48305,2.70574 -20.950668,7.2307 -2.732402,2.26407 -4.981107,4.99101 -6.557878,8.07868 -1.577024,3.08439 -2.46928,6.53226 -2.467774,10.13769 l 1e-6,19.62545 0.545851,-2.3e-4 -24.857985,79.49701 6.7990803,2.12251 9.3303158,-29.84947 14.1642899,10e-6 -4.427761,28.3236 5.95362,0.93176 4.575022,-29.25537 h 14.882802 l 1e-6,28.78821 6.027251,0.003 -1e-6,-28.79076 14.880278,10e-6 4.572486,29.25536 5.953627,-0.93175 -4.427769,-28.32362 h 14.164289 l 9.335402,29.85201 6.796533,-2.12503 -24.855456,-79.49957 0.540767,0.003 1.4e-5,-19.62544 c 0.0015,-3.60506 -0.888407,-7.05349 -2.465227,-10.13769 -2.367796,-4.63188 -6.24178,-8.45213 -11.000892,-11.11771 -4.765132,-2.66558 -10.44099,-4.18847 -16.510211,-4.19167 z m 1.5e-5,7.12152 c 6.495946,-0.005 12.313733,2.19569 16.406125,5.59313 2.048347,1.69485 3.664927,3.68271 4.762892,5.83178 1.096464,2.15396 1.686843,4.4615 1.688354,6.90064 l -8e-6,16.6118 -45.712198,1e-5 0.0026,-16.60926 c 0.0015,-2.43953 0.589521,-4.74942 1.685799,-6.90319 1.640643,-3.22257 4.466672,-6.08757 8.136769,-8.14243 3.669057,-2.05326 8.157205,-3.28576 13.029432,-3.28275 z m -22.913214,40.96209 6.542646,0.003 -3.008547,19.22938 -9.546119,0.003 z m 12.64099,0 7.261138,-4e-5 8e-6,19.23447 -10.267156,-10e-6 z m 13.285858,10e-6 7.261138,-4e-5 3.006011,19.23447 -10.267149,-0.003 z m 13.35695,-10e-6 6.545186,-10e-6 6.012027,19.23447 -9.548671,-10e-6 z m 13.737757,23.0123 6.166905,19.71939 -13.222388,-10e-6 -2.731823,-17.4725 9.789858,-0.003 z m -60.917413,2.24436 10.490573,0.003 -2.731815,17.47248 -13.222381,10e-6 z m 45.03177,0 2.729278,17.47503 H 44.209623 l -7e-6,-17.47249 z m -28.445393,0.003 11.211603,-10e-6 7e-6,17.47249 -13.940879,10e-6 z"
   inkscape:export-filename="..\src\web\scu-webservice\public\icon_game.svg"
   inkscape:export-xdpi="96"
   inkscape:export-ydpi="96" />&#10;</g></g></svg>
