<?xml version="1.0" encoding="UTF-8" standalone="no"?>
<!-- Created with Inkscape (http://www.inkscape.org/) -->

<svg
   width="500"
   height="499.99832"
   viewBox="0 0 132.29167 132.29123"
   version="1.1"
   id="svg1"
   inkscape:version="1.3 (0e150ed6c4, 2023-07-21)"
   sodipodi:docname="icons.svg"
   xml:space="preserve"
   xmlns:inkscape="http://www.inkscape.org/namespaces/inkscape"
   xmlns:sodipodi="http://sodipodi.sourceforge.net/DTD/sodipodi-0.dtd"
   xmlns="http://www.w3.org/2000/svg"
   xmlns:svg="http://www.w3.org/2000/svg"><sodipodi:namedview
     id="namedview1"
     pagecolor="#ffffff"
     bordercolor="#000000"
     borderopacity="0.25"
     inkscape:showpageshadow="2"
     inkscape:pageopacity="0.0"
     inkscape:pagecheckerboard="0"
     inkscape:deskcolor="#d1d1d1"
     inkscape:document-units="px"
     inkscape:zoom="0.3514415"
     inkscape:cx="29.87695"
     inkscape:cy="482.29933"
     inkscape:current-layer="layer1"><inkscape:page
       x="0"
       y="-1.3747781e-11"
       width="132.29167"
       height="132.29123"
       id="page6"
       margin="0"
       bleed="0" /></sodipodi:namedview><defs
     id="defs1" /><path
     fill-rule="evenodd"
     clip-rule="evenodd"
     d="m 125.40351,5.7626682 c -7.68375,-7.6835249 -20.14054,-7.6835903 -27.824292,0 L 86.562588,16.779323 34.712482,68.629025 c -0.84051,0.840774 -1.43674,1.894044 -1.72504,3.046989 l -6.55831,26.233258 c -0.55877,2.235068 0.096,4.599348 1.72503,6.227778 1.62896,1.62908 3.99317,2.28426 6.22812,1.72549 l 26.232986,-6.558315 c 1.1536,-0.288578 2.20622,-0.884727 3.04699,-1.725495 L 115.13516,46.106267 126.52892,34.712444 c 7.68375,-7.683525 7.68375,-20.141042 0,-27.8245667 z m -18.54947,9.2748328 c 2.56102,-2.561152 6.71365,-2.561152 9.27468,0 l 1.1254,1.12521 c 2.56103,2.561218 2.56103,6.713745 0,9.274898 l -6.66644,6.666658 -10.20083,-10.599481 z M 91.110118,30.781323 101.31094,41.380805 55.672278,87.019853 41.805172,90.486565 45.271828,76.619674 Z m -77.993436,9.693779 c 0,-3.622025 2.9363,-6.558314 6.55832,-6.558314 h 32.791556 c 3.62217,0 6.55832,-2.936223 6.55832,-6.558314 0,-3.622025 -2.93617,-6.558314 -6.55832,-6.558314 H 19.675002 C 8.8088618,20.80016 5.175293e-5,29.608959 5.175293e-5,40.475102 V 112.6163 c 0,10.86646 8.80879004707,19.67493 19.67495024707,19.67493 h 72.141436 c 10.866482,0 19.674912,-8.80847 19.674912,-19.67493 V 79.824717 c 0,-3.621492 -2.93613,-6.558308 -6.55831,-6.558308 -3.6221,0 -6.558292,2.936816 -6.558292,6.558308 V 112.6163 c 0,3.62215 -2.93615,6.5583 -6.5583,6.5583 H 19.675002 c -3.62204,0 -6.55832,-2.93615 -6.55832,-6.5583 z"
     fill="#000000"
     id="path1"
     style="stroke-width:6.55832"
     inkscape:export-filename="..\src\web\scu-webservice\public\icon_edit.svg"
     inkscape:export-xdpi="90"
     inkscape:export-ydpi="90" /></svg>
