<?xml version="1.0" encoding="UTF-8" standalone="no"?>
<!-- Created with Inkscape (http://www.inkscape.org/) -->

<svg
   width="500.00012"
   height="500"
   viewBox="0 0 132.2917 132.29167"
   version="1.1"
   id="svg1"
   inkscape:version="1.3 (0e150ed6c4, 2023-07-21)"
   sodipodi:docname="icons.svg"
   xml:space="preserve"
   xmlns:inkscape="http://www.inkscape.org/namespaces/inkscape"
   xmlns:sodipodi="http://sodipodi.sourceforge.net/DTD/sodipodi-0.dtd"
   xmlns="http://www.w3.org/2000/svg"
   xmlns:svg="http://www.w3.org/2000/svg"><sodipodi:namedview
     id="namedview1"
     pagecolor="#ffffff"
     bordercolor="#000000"
     borderopacity="0.25"
     inkscape:showpageshadow="2"
     inkscape:pageopacity="0.0"
     inkscape:pagecheckerboard="0"
     inkscape:deskcolor="#d1d1d1"
     inkscape:document-units="px"
     inkscape:zoom="0.3514415"
     inkscape:cx="29.87695"
     inkscape:cy="482.29933"
     inkscape:current-layer="layer1"><inkscape:page
       x="-7.41438e-06"
       y="0"
       width="132.2917"
       height="132.29167"
       id="page6"
       margin="0"
       bleed="0" /></sodipodi:namedview><defs
     id="defs1" /><g
     inkscape:label="Ebene 1"
     inkscape:groupmode="layer"
     id="layer1"
     transform="translate(-426.87502)"><g
       id="g2-3-2"
       transform="matrix(0.20354154,0,0,0.20354155,483.97509,-11.821393)"
       style="stroke:none;stroke-width:1.21866"
       inkscape:export-filename="..\src\web\scu-webservice\public\icon_game.svg"
       inkscape:export-xdpi="90"
       inkscape:export-ydpi="90">&#10;	&#10;	&#10;		&#10;	&#10;	<g
   id="g12"
   transform="rotate(-44.394289,185.53319,447.78554)"
   style="stroke:none;stroke-width:1.21866"><path
     id="path45"
     class="st0"
     d="m 148.57488,522.84538 2.26175,213.93682 -41.21943,0.88393 -2.2617,-213.93126 13.54427,-18.92166 -3.05823,-289.27447 13.738,-0.34029 3.05818,289.26951 z"
     sodipodi:nodetypes="ccccccccc"
     style="fill:#000000;stroke:none;stroke-width:1.21866" /><path
     class="st0"
     d="m 174.26312,-52.60408 v 43.3569809 l -44.33307,-6.135e-4 6.1e-4,-59.0204604 c -0.98837,-0.03624 -1.96692,-0.09091 -2.96143,-0.0903 -1.64381,-0.0025 -3.28701,0.06204 -4.9216,0.164626 v 58.9449039 l -44.333068,-6.135e-4 6.14e-4,-41.9017564 c -2.708967,2.048004 -5.332549,4.269848 -7.882417,6.647719 l -0.0025,35.2546518 -25.517115,-0.00246 c -1.239613,2.5787397 -2.387699,5.2096931 -3.463914,7.8842602 l 28.986558,-0.00246 -0.0025,49.262651 -39.289232,1e-6 c -0.07187,1.956476 -0.117327,3.925851 -0.11487,5.903827 -0.0049,0.656049 0.02212,1.318241 0.02887,1.981047 l 39.378301,-0.0018 -0.0025,49.252826 h -29.60575 c 1.129657,2.69853 2.368042,5.32518 3.695497,7.88242 h 25.91271 l -0.0018,31.67648 c 2.532669,2.00193 5.157479,3.86504 7.881803,5.58072 l -0.0025,-37.25966 44.335533,-0.002 0.004,51.11224 c 1.62415,0.0786 3.26796,0.11917 4.92282,0.11917 0.9853,0 1.97122,-0.0289 2.95468,-0.0553 v -51.17429 l 44.33123,0.002 -6.2e-4,38.47654 c 2.13892,-1.2777 4.23668,-2.6285 6.27547,-4.08372 0.54486,-0.3827 1.06946,-0.79181 1.60511,-1.19355 l 0.002,-33.19682 27.86919,-0.004 c 1.33483,-2.54986 2.57444,-5.17652 3.71761,-7.87996 l -31.5868,6.2e-4 0.003,-49.253444 41.3311,-0.0025 c 0.0166,-0.657892 0.0454,-1.308412 0.0448,-1.968761 -0.003,-1.988419 -0.0528,-3.947352 -0.12654,-5.911813 l -41.25185,6.15e-4 V -1.3662571 l 30.91969,-0.00307 c -1.07868,-2.67211 -2.2372,-5.2938492 -3.47559,-7.8824173 l -27.44349,4e-7 v -37.080287 c -2.54618,-2.251329 -5.17959,-4.344175 -7.88303,-6.272394 z m -96.552243,51.2344856 44.339213,0.00184 6.1e-4,49.2608084 -44.334908,0.0025 z m 0.0049,106.4003444 -0.0025,-49.257733 44.337363,0.0049 -6.1e-4,49.250983 z m 96.547323,0.002 -44.33491,-0.006 0.002,-49.254054 44.33,0.0025 z m -0.002,-57.142612 -44.32754,0.0049 -0.005,-49.2651082 44.33245,-8e-7 z"
     id="path44"
     style="fill:#000000;stroke:none;stroke-width:1.21866" /><path
     class="st0"
     d="m 180.3586,-94.669234 c -16.2839,-8.413766 -34.41186,-13.135726 -53.38937,-13.133266 -18.96646,0 -37.093804,4.72257 -53.382618,13.136339 -24.458714,12.630173 -44.80852,33.430861 -59.068373,59.18263 -14.26292404,25.7646691 -22.4752083,56.568876 -22.4825791,89.598613 0.00491,22.013272 3.6647842,42.390107 10.4064873,60.565988 10.0993478,27.26596 27.1750528,49.58514 48.8228288,64.99922 21.639792,15.43927 47.831998,23.91447 75.708554,23.90279 18.57577,-0.002 36.42178,-3.75324 52.65531,-10.83893 24.36473,-10.62456 45.07205,-28.75682 59.54014,-52.51649 14.48959,-23.76151 22.74242,-53.095131 22.7375,-86.112583 -0.0141,-44.030844 -14.58112,-84.122322 -38.69706,-113.582488 -12.0632,-14.719333 -26.55034,-26.786213 -42.85082,-35.201823 z m 37.27808,71.25258 c 12.15227,21.9414013 19.36205,48.653287 19.35284,77.532346 0.007,19.263763 -3.1881,36.651521 -8.84069,51.901588 -8.49301,22.87449 -22.48012,40.94779 -39.92378,53.3777 -17.4584,12.42501 -38.3973,19.26008 -61.24783,19.27912 -15.23902,-0.005 -29.62541,-3.06156 -42.691721,-8.76022 C 64.688797,161.34962 47.991488,146.83423 36.046848,127.25902 24.123709,107.69058 16.961225,83.007655 16.947096,54.113853 c -0.0098,-38.505412 12.843941,-73.146401 33.057992,-97.791855 10.099347,-12.319349 22.001601,-22.144114 35.005255,-28.852646 13.025154,-6.710375 27.118537,-10.353659 41.958887,-10.362873 14.85324,0.0074 28.94786,3.653112 41.96625,10.365329 19.49903,10.048976 36.54648,27.152937 48.7012,49.111538 z"
     id="path43"
     style="fill:#000000;stroke:none;stroke-width:1.21866" /></g>&#10;<g
   id="g18"
   transform="matrix(-1,0,0,1,418.27398,15.203997)"
   style="stroke:none;stroke-width:1.21866" /></g><g
       id="g26"
       transform="matrix(-0.20354154,0,0,0.20354155,502.06664,-11.821393)"
       style="stroke:none;stroke-width:1.21866">&#10;	&#10;	&#10;		&#10;	&#10;	<g
   id="g24"
   transform="rotate(-44.394289,185.53319,447.78554)"
   style="stroke:none;stroke-width:1.21866"><g
     id="g23"
     transform="matrix(0.61427815,-0.61427817,0.61427817,0.61427815,-187.53873,157.76961)"
     style="stroke-width:1.40282"><path
       id="path42"
       class="st0"
       d="M -23.574146,570.74256 -195.86993,746.7203 -230.14053,713.88867 -57.849228,537.9155 -31.423153,533.5385 201.54642,295.59036 213.00564,306.49561 -19.959936,544.43967 Z"
       sodipodi:nodetypes="ccccccccc"
       style="fill:#000000;stroke:none;stroke-width:1.40282" /><path
       class="st0"
       d="m 465.73,123.257 -35.291,35.291 -36.085,-36.086 48.041,-48.04 c -0.775,-0.834 -1.527,-1.675 -2.337,-2.484 -1.336,-1.34 -2.726,-2.625 -4.14,-3.872 l -47.979,47.979 -36.085,-36.086 34.107,-34.106 c -3.872,-0.538 -7.816,-0.865 -11.827,-1.005 L 345.436,73.542 324.668,52.77 c -3.108,1.09 -6.184,2.297 -9.237,3.598 l 23.596,23.592 -40.1,40.096 -31.98,-31.98 c -1.651,1.534 -3.291,3.1 -4.899,4.712 -0.538,0.53 -1.055,1.091 -1.589,1.636 l 32.054,32.051 -40.092,40.088 -24.098,-24.098 c -1.277,3.116 -2.407,6.262 -3.408,9.424 l 21.092,21.092 -25.785,25.782 c 0.432,3.691 1.052,7.344 1.873,10.958 l 30.326,-30.33 36.089,36.086 -41.6,41.607 c 1.258,1.386 2.563,2.757 3.91,4.104 0.802,0.802 1.628,1.581 2.45,2.36 l 41.654,-41.654 36.082,36.086 -31.319,31.318 c 2.781,0.701 5.588,1.309 8.432,1.784 0.755,0.132 1.515,0.226 2.278,0.335 l 27.023,-27.019 22.688,22.681 c 3.162,-0.989 6.309,-2.118 9.44,-3.388 l -25.711,-25.71 40.093,-40.088 33.644,33.64 c 0.549,-0.522 1.102,-1.028 1.639,-1.566 1.616,-1.621 3.17,-3.256 4.709,-4.915 l -33.578,-33.577 40.096,-40.096 25.17,25.165 c 1.297,-3.053 2.488,-6.13 3.587,-9.245 l -22.338,-22.338 30.182,-30.182 c -0.24,-3.905 -0.68,-7.752 -1.311,-11.522 z M 345.437,86.37 l 36.089,36.092 -40.096,40.097 -36.089,-36.085 z m -86.602,86.61 40.092,-40.096 36.085,36.093 -40.089,40.088 z m 78.584,78.588 -36.082,-36.092 40.093,-40.089 36.081,36.085 z m 46.51,-46.514 -36.085,-36.077 40.096,-40.104 36.085,36.085 z"
       id="path41"
       style="fill:#000000;stroke:none;stroke-width:1.40282" /><path
       class="st0"
       d="M 504.931,93.979 C 498.525,73.876 487.613,55.277 472.164,39.832 456.726,24.394 438.127,13.483 418.02,7.073 c -30.189,-9.628 -63.684,-9.261 -96.252,0.093 -32.581,9.362 -64.339,27.751 -91.23,54.63 -17.914,17.922 -31.521,37.487 -40.828,57.769 -13.973,30.414 -18.241,62.48 -13.167,92.647 5.047,30.181 19.468,58.399 42.168,81.08 15.122,15.118 32.701,26.591 51.682,34.037 28.48,11.184 60.094,13.28 91.21,5.717 31.135,-7.547 61.729,-24.706 88.6,-51.585 35.828,-35.851 56.604,-80.341 60.954,-123.95 2.162,-21.8 0.192,-43.414 -6.226,-63.532 z m -27.654,88.34 c -7.968,27.751 -23.842,55.362 -47.356,78.861 -15.674,15.686 -32.428,27.238 -49.442,35.05 -25.532,11.706 -51.628,15.032 -75.944,10.951 -24.324,-4.097 -46.931,-15.577 -65.546,-34.161 -12.4,-12.408 -21.622,-26.606 -27.619,-41.88 -8.98,-22.922 -10.756,-48.328 -4.545,-73.984 6.223,-25.633 20.484,-51.554 43.991,-75.084 31.334,-31.35 69.993,-49.084 106.507,-52.691 18.248,-1.807 35.933,-0.116 51.978,5.008 16.064,5.14 30.501,13.646 42.588,25.718 12.084,12.096 20.589,26.536 25.722,42.596 7.692,24.051 7.646,51.849 -0.334,79.616 z"
       id="path40"
       style="fill:#000000;stroke:none;stroke-width:1.40282" /></g></g>&#10;<g
   id="g25"
   transform="matrix(-1,0,0,1,418.27398,15.203997)"
   style="stroke:none;stroke-width:1.21866" /></g><g
       id="g1-1-2"
       transform="matrix(-0.03831345,0.03831345,-0.03831345,-0.03831345,511.97623,123.29261)"
       style="stroke-width:7.15299">&#10;	<path
   class="st0"
   d="m 511.999,288.414 -12.415,-23.7 -104.08,54.502 -37.624,-37.622 86.994,-63.475 -13.337,-18.288 -89.861,65.558 -39.534,-39.535 76.474,-76.465 L 362.61,133.374 286.136,209.848 246.61,170.322 312.168,80.462 293.88,67.123 230.414,154.117 192.782,116.494 247.286,12.406 223.585,0 78.438,277.186 l -1.433,-1.442 -52.131,52.13 c -9.58,9.572 -16.377,21.098 -20.381,33.479 -6.014,18.593 -5.865,39.032 -0.304,58.754 5.577,19.738 16.6,38.858 32.713,54.988 21.509,21.485 48.316,33.941 74.859,36.445 13.272,1.244 26.494,-0.024 38.884,-4.036 12.382,-4.004 23.907,-10.8 33.48,-20.381 l 52.131,-52.122 -1.45,-1.45 z m -137.509,41.8 -60.929,31.907 -27.861,-27.871 53.671,-39.156 z m -51.324,-51.324 -53.662,39.164 -29.781,-29.772 46.413,-46.421 z m -99.45,25.39 27.276,27.276 -59.075,43.102 -19.285,-19.286 z m -67.09,35.086 -19.285,-19.285 43.101,-59.076 27.269,27.276 z m 76.482,-150.533 37.022,37.021 -46.414,46.414 -29.772,-29.764 z m -51.323,-51.323 35.119,35.119 -39.156,53.671 -26.008,-26 -5.964,5.972 z m -42.903,81.936 25.364,25.364 -43.102,59.075 -17.382,-17.382 z m 26.328,248.755 c -6.484,6.476 -14.178,11.048 -22.811,13.857 -12.918,4.202 -28.035,4.3 -43.242,0.008 -15.2,-4.292 -30.398,-12.942 -43.332,-25.892 -17.267,-17.243 -26.88,-38.538 -28.726,-58.433 -0.939,-9.943 0.05,-19.516 2.842,-28.141 2.809,-8.634 7.373,-16.328 13.848,-22.811 l 44.123,-44.123 121.42,121.421 z m 42.912,-77.347 59.066,-43.093 25.366,25.357 -67.058,35.118 z"
   id="path39"
   style="fill:#000000;stroke-width:7.15299" />&#10;</g></g></svg>
