<?xml version="1.0" encoding="UTF-8" standalone="no"?>
<!-- Created with Inkscape (http://www.inkscape.org/) -->

<svg
   width="210mm"
   height="248.47mm"
   viewBox="0 0 210 248.47"
   version="1.1"
   id="svg1"
   inkscape:version="1.3 (0e150ed6c4, 2023-07-21)"
   sodipodi:docname="scu_badminton_logo_neu.svg"
   xmlns:inkscape="http://www.inkscape.org/namespaces/inkscape"
   xmlns:sodipodi="http://sodipodi.sourceforge.net/DTD/sodipodi-0.dtd"
   xmlns="http://www.w3.org/2000/svg"
   xmlns:svg="http://www.w3.org/2000/svg">
  <sodipodi:namedview
     id="namedview1"
     pagecolor="#ffffff"
     bordercolor="#000000"
     borderopacity="0.25"
     inkscape:showpageshadow="2"
     inkscape:pageopacity="0.0"
     inkscape:pagecheckerboard="0"
     inkscape:deskcolor="#d1d1d1"
     inkscape:document-units="mm"
     showguides="true"
     inkscape:zoom="0.70710678"
     inkscape:cx="501.33871"
     inkscape:cy="461.74073"
     inkscape:current-layer="layer1" />
  <defs
     id="defs1" />
  <g
     inkscape:label="Ebene 1"
     inkscape:groupmode="layer"
     id="layer1">
    <path
       id="path3"
       style="fill:#000000;fill-opacity:1;fill-rule:evenodd;stroke:none;stroke-width:0.1"
       d="m 209.99999,32.300529 -26.20416,10.119583 7.09818,2.585215 -51.82867,132.664803 -13.84882,-4.53975 37.68332,-112.189692 10.4735,-14.496083 -22.48131,8.68158 -30.27074,126.648155 c 0.18743,0.0305 11.46635,1.876 16.83196,5.96626 z M 104.75926,0 62.495388,49.126113 95.584107,180.96447 c 9.853533,-0.86741 19.050623,-0.0248 19.416543,0.009 l 3.71648,-14.49671 -8.35891,5.36237 L 96.145918,170.97788 80.211194,41.775756 105.18971,13.78222 l 32.60535,40.061914 6.26727,13.769111 4.19475,-16.362617 z M 0,32.300529 81.256377,173.64372 l -6.213701,2.50168 -9.154751,-3.10685 6.882644,14.70205 c 3.659393,-2.79605 11.823378,-5.03765 14.509515,-5.52115 L 28.753032,53.035821 l 23.89507,9.41174 10.4244,8.212233 -3.96455,-15.533609 z M 90.293787,190.00826 c -4.969799,0.006 -9.940289,0.036 -14.911223,0.0892 2.5e-5,4.92692 -2.5e-5,9.85359 0,14.78051 v 13.78505 c 0,10.64923 5.681702,20.48929 14.904214,25.81389 9.222502,5.32463 20.584622,5.32462 29.807132,0 9.22252,-5.32461 14.90422,-15.16466 14.90422,-25.81389 l -0.16453,-13.78505 c 0.0548,-4.7627 0.1097,-9.52487 0.16453,-14.28757 -14.89133,-0.40641 -29.79496,-0.60062 -44.704343,-0.5822 z m -9.812852,14.7671 h 49.418825 c 1.35105,0 2.43918,1.08814 2.43918,2.43918 v 11.47213 c 0,9.69915 -5.17491,18.66159 -13.57462,23.51117 -8.3997,4.84958 -18.74824,4.84958 -27.147953,0 -8.399707,-4.84958 -13.573969,-13.81202 -13.573969,-23.51117 v -11.47213 c 0,-1.35104 1.0875,-2.43918 2.438537,-2.43918 z" />
  </g>
</svg>
